<?xml version="1.0" encoding="UTF-8" standalone="no"?>
<!-- Created with Inkscape (http://www.inkscape.org/) -->

<svg
   xmlns:dc="http://purl.org/dc/elements/1.1/"
   xmlns:cc="http://creativecommons.org/ns#"
   xmlns:rdf="http://www.w3.org/1999/02/22-rdf-syntax-ns#"
   xmlns:svg="http://www.w3.org/2000/svg"
   xmlns="http://www.w3.org/2000/svg"
   xmlns:sodipodi="http://sodipodi.sourceforge.net/DTD/sodipodi-0.dtd"
   xmlns:inkscape="http://www.inkscape.org/namespaces/inkscape"
   id="svg2"
   version="1.1"
   inkscape:version="0.91 r"
   xml:space="preserve"
   width="765"
   height="990"
   viewBox="0 0 765 990"
   sodipodi:docname="benchmarkTables.svg"><metadata
     id="metadata8"><rdf:RDF><cc:Work
         rdf:about=""><dc:format>image/svg+xml</dc:format><dc:type
           rdf:resource="http://purl.org/dc/dcmitype/StillImage" /><dc:title></dc:title></cc:Work></rdf:RDF></metadata><defs
     id="defs6" /><sodipodi:namedview
     pagecolor="#ffffff"
     bordercolor="#666666"
     borderopacity="1"
     objecttolerance="10"
     gridtolerance="10"
     guidetolerance="10"
     inkscape:pageopacity="0"
     inkscape:pageshadow="2"
     inkscape:window-width="1920"
     inkscape:window-height="876"
     id="namedview4"
     showgrid="false"
     inkscape:zoom="1.3485026"
     inkscape:cx="395.21704"
     inkscape:cy="721.84462"
     inkscape:window-x="0"
     inkscape:window-y="24"
     inkscape:window-maximized="1"
     inkscape:current-layer="g10" /><g
     id="g10"
     inkscape:groupmode="layer"
     inkscape:label="FSU_Manuscript_2015"
     transform="matrix(1.25,0,0,-1.25,0,990)"><g
       id="g16"
       transform="translate(154.492,683.492)"><path
         d="M 0,0 299.379,0"
         style="fill:none;stroke:#000000;stroke-width:0.398;stroke-linecap:butt;stroke-linejoin:miter;stroke-miterlimit:10;stroke-dasharray:none;stroke-opacity:1"
         id="path18"
         inkscape:connector-curvature="0" /></g><g
       id="g20"
       transform="translate(154.692,669.743)"><path
         d="M 0,0 0,13.549"
         style="fill:none;stroke:#000000;stroke-width:0.398;stroke-linecap:butt;stroke-linejoin:miter;stroke-miterlimit:10;stroke-dasharray:none;stroke-opacity:1"
         id="path22"
         inkscape:connector-curvature="0" /></g><text
       transform="matrix(1,0,0,-1,160.868,673.808)"
       style="font-variant:normal;font-weight:normal;font-size:10.90909958px;font-family:CMBX10;-inkscape-font-specification:CMBX10;writing-mode:lr-tb;fill:#000000;fill-opacity:1;fill-rule:nonzero;stroke:none"
       id="text24"><tspan
         x="0 9.4843712 15.060013 20.635654 26.385839 31.334208 40.460762 48.838951 55.470592 62.778599"
         y="0"
         sodipodi:role="line"
         id="tspan26">AccessType</tspan></text>
<g
       id="g28"
       transform="translate(355.5,669.743)"><path
         d="M 0,0 0,13.549"
         style="fill:none;stroke:#000000;stroke-width:0.398;stroke-linecap:butt;stroke-linejoin:miter;stroke-miterlimit:10;stroke-dasharray:none;stroke-opacity:1"
         id="path30"
         inkscape:connector-curvature="0" /></g><text
       transform="matrix(1,0,0,-1,385.075,673.808)"
       style="font-variant:normal;font-weight:normal;font-size:10.90909958px;font-family:CMBX10;-inkscape-font-specification:CMBX10;writing-mode:lr-tb;fill:#000000;fill-opacity:1;fill-rule:nonzero;stroke:none"
       id="text32"><tspan
         x="0 8.2418251 15.211649 20.961836 26.128386 32.401119"
         y="0"
         sodipodi:role="line"
         id="tspan34">Energy</tspan></text>
<g
       id="g36"
       transform="translate(453.672,669.743)"><path
         d="M 0,0 0,13.549"
         style="fill:none;stroke:#000000;stroke-width:0.398;stroke-linecap:butt;stroke-linejoin:miter;stroke-miterlimit:10;stroke-dasharray:none;stroke-opacity:1"
         id="path38"
         inkscape:connector-curvature="0" /></g><g
       id="g40"
       transform="translate(154.492,669.544)"><path
         d="M 0,0 299.379,0"
         style="fill:none;stroke:#000000;stroke-width:0.398;stroke-linecap:butt;stroke-linejoin:miter;stroke-miterlimit:10;stroke-dasharray:none;stroke-opacity:1"
         id="path42"
         inkscape:connector-curvature="0" /></g><g
       id="g44"
       transform="translate(154.492,667.153)"><path
         d="M 0,0 299.379,0"
         style="fill:none;stroke:#000000;stroke-width:0.398;stroke-linecap:butt;stroke-linejoin:miter;stroke-miterlimit:10;stroke-dasharray:none;stroke-opacity:1"
         id="path46"
         inkscape:connector-curvature="0" /></g><g
       id="g48"
       transform="translate(154.692,653.405)"><path
         d="M 0,0 0,13.549"
         style="fill:none;stroke:#000000;stroke-width:0.398;stroke-linecap:butt;stroke-linejoin:miter;stroke-miterlimit:10;stroke-dasharray:none;stroke-opacity:1"
         id="path50"
         inkscape:connector-curvature="0" /></g><text
       transform="matrix(1,0,0,-1,160.868,657.469)"
       style="font-variant:normal;font-weight:normal;font-size:10.90909958px;font-family:CMSS10;-inkscape-font-specification:CMSS10;writing-mode:lr-tb;fill:#000000;fill-opacity:1;fill-rule:nonzero;stroke:none"
       id="text52"><tspan
         x="0 5.9094596 11.36401 22.875292 27.117842 29.724024 35.178574 40.42149 46.05822 53.944408 63.031689 67.274239 71.455696 75.394974 80.544067 84.271706 89.119713"
         y="0"
         sodipodi:role="line"
         id="tspan54">L1D(load)/(store)</tspan></text>
<g
       id="g56"
       transform="translate(355.5,653.405)"><path
         d="M 0,0 0,13.549"
         style="fill:none;stroke:#000000;stroke-width:0.398;stroke-linecap:butt;stroke-linejoin:miter;stroke-miterlimit:10;stroke-dasharray:none;stroke-opacity:1"
         id="path58"
         inkscape:connector-curvature="0" /></g><text
       transform="matrix(1,0,0,-1,361.677,657.469)"
       style="font-variant:normal;font-weight:normal;font-size:10.90909958px;font-family:CMSS10;-inkscape-font-specification:CMSS10;writing-mode:lr-tb;fill:#000000;fill-opacity:1;fill-rule:nonzero;stroke:none"
       id="text60"><tspan
         x="0 5.4545498 10.9091 16.363649 19.394197 28.481478 34.11821 42.913128 52.000408 57.454956 62.909508 65.940056 75.027336 80.66407"
         y="0"
         sodipodi:role="line"
         id="tspan62">170.0pJ/91.2pJ</tspan></text>
<g
       id="g64"
       transform="translate(453.672,653.405)"><path
         d="M 0,0 0,13.549"
         style="fill:none;stroke:#000000;stroke-width:0.398;stroke-linecap:butt;stroke-linejoin:miter;stroke-miterlimit:10;stroke-dasharray:none;stroke-opacity:1"
         id="path66"
         inkscape:connector-curvature="0" /></g><g
       id="g68"
       transform="translate(154.492,653.205)"><path
         d="M 0,0 299.379,0"
         style="fill:none;stroke:#000000;stroke-width:0.398;stroke-linecap:butt;stroke-linejoin:miter;stroke-miterlimit:10;stroke-dasharray:none;stroke-opacity:1"
         id="path70"
         inkscape:connector-curvature="0" /></g><g
       id="g72"
       transform="translate(154.692,639.457)"><path
         d="M 0,0 0,13.549"
         style="fill:none;stroke:#000000;stroke-width:0.398;stroke-linecap:butt;stroke-linejoin:miter;stroke-miterlimit:10;stroke-dasharray:none;stroke-opacity:1"
         id="path74"
         inkscape:connector-curvature="0" /></g><text
       transform="matrix(1,0,0,-1,160.868,643.522)"
       style="font-variant:normal;font-weight:normal;font-size:10.90909958px;font-family:CMSS10;-inkscape-font-specification:CMSS10;writing-mode:lr-tb;fill:#000000;fill-opacity:1;fill-rule:nonzero;stroke:none"
       id="text76"><tspan
         x="0 5.9094596 11.36401 22.875292 27.117842 32.460026 37.490211 41.429489 46.277493 54.152771 63.240051 67.482605 70.088783 72.694969 78.331703 83.179703"
         y="0"
         sodipodi:role="line"
         id="tspan78">L1D(byte)/(line)</tspan></text>
<g
       id="g80"
       transform="translate(355.5,639.457)"><path
         d="M 0,0 0,13.549"
         style="fill:none;stroke:#000000;stroke-width:0.398;stroke-linecap:butt;stroke-linejoin:miter;stroke-miterlimit:10;stroke-dasharray:none;stroke-opacity:1"
         id="path82"
         inkscape:connector-curvature="0" /></g><text
       transform="matrix(1,0,0,-1,368.889,643.522)"
       style="font-variant:normal;font-weight:normal;font-size:10.90909958px;font-family:CMSS10;-inkscape-font-specification:CMSS10;writing-mode:lr-tb;fill:#000000;fill-opacity:1;fill-rule:nonzero;stroke:none"
       id="text84"><tspan
         x="0 5.4545498 10.9091 13.939648 23.026928 32.125118 37.579666 43.034218 48.48877 51.519314 60.606594 66.243324"
         y="0"
         sodipodi:role="line"
         id="tspan86">28.2/367.4pJ</tspan></text>
<g
       id="g88"
       transform="translate(453.672,639.457)"><path
         d="M 0,0 0,13.549"
         style="fill:none;stroke:#000000;stroke-width:0.398;stroke-linecap:butt;stroke-linejoin:miter;stroke-miterlimit:10;stroke-dasharray:none;stroke-opacity:1"
         id="path90"
         inkscape:connector-curvature="0" /></g><g
       id="g92"
       transform="translate(154.492,639.258)"><path
         d="M 0,0 299.379,0"
         style="fill:none;stroke:#000000;stroke-width:0.398;stroke-linecap:butt;stroke-linejoin:miter;stroke-miterlimit:10;stroke-dasharray:none;stroke-opacity:1"
         id="path94"
         inkscape:connector-curvature="0" /></g><g
       id="g96"
       transform="translate(154.692,625.509)"><path
         d="M 0,0 0,13.549"
         style="fill:none;stroke:#000000;stroke-width:0.398;stroke-linecap:butt;stroke-linejoin:miter;stroke-miterlimit:10;stroke-dasharray:none;stroke-opacity:1"
         id="path98"
         inkscape:connector-curvature="0" /></g><text
       transform="matrix(1,0,0,-1,160.868,629.574)"
       style="font-variant:normal;font-weight:normal;font-size:10.90909958px;font-family:CMSS10;-inkscape-font-specification:CMSS10;writing-mode:lr-tb;fill:#000000;fill-opacity:1;fill-rule:nonzero;stroke:none"
       id="text100"><tspan
         x="0 7.878552 15.303286 21.212746"
         y="0"
         sodipodi:role="line"
         id="tspan102">DTLB</tspan></text>
<g
       id="g104"
       transform="translate(355.5,625.509)"><path
         d="M 0,0 0,13.549"
         style="fill:none;stroke:#000000;stroke-width:0.398;stroke-linecap:butt;stroke-linejoin:miter;stroke-miterlimit:10;stroke-dasharray:none;stroke-opacity:1"
         id="path106"
         inkscape:connector-curvature="0" /></g><text
       transform="matrix(1,0,0,-1,387.677,629.574)"
       style="font-variant:normal;font-weight:normal;font-size:10.90909958px;font-family:CMSS10;-inkscape-font-specification:CMSS10;writing-mode:lr-tb;fill:#000000;fill-opacity:1;fill-rule:nonzero;stroke:none"
       id="text108"><tspan
         x="0 5.4545498 10.9091 13.939648 23.026928 28.66366"
         y="0"
         sodipodi:role="line"
         id="tspan110">17.5pJ</tspan></text>
<g
       id="g112"
       transform="translate(453.672,625.509)"><path
         d="M 0,0 0,13.549"
         style="fill:none;stroke:#000000;stroke-width:0.398;stroke-linecap:butt;stroke-linejoin:miter;stroke-miterlimit:10;stroke-dasharray:none;stroke-opacity:1"
         id="path114"
         inkscape:connector-curvature="0" /></g><g
       id="g116"
       transform="translate(154.492,625.31)"><path
         d="M 0,0 299.379,0"
         style="fill:none;stroke:#000000;stroke-width:0.398;stroke-linecap:butt;stroke-linejoin:miter;stroke-miterlimit:10;stroke-dasharray:none;stroke-opacity:1"
         id="path118"
         inkscape:connector-curvature="0" /></g><g
       id="g120"
       transform="translate(154.692,611.561)"><path
         d="M 0,0 0,13.549"
         style="fill:none;stroke:#000000;stroke-width:0.398;stroke-linecap:butt;stroke-linejoin:miter;stroke-miterlimit:10;stroke-dasharray:none;stroke-opacity:1"
         id="path122"
         inkscape:connector-curvature="0" /></g><text
       transform="matrix(1,0,0,-1,160.868,615.626)"
       style="font-variant:normal;font-weight:normal;font-size:10.90909958px;font-family:CMSS10;-inkscape-font-specification:CMSS10;writing-mode:lr-tb;fill:#000000;fill-opacity:1;fill-rule:nonzero;stroke:none"
       id="text124"><tspan
         x="0 6.519278 13.792376 24.698202 28.940752 36.089485 41.238579 44.966221 50.602951 58.48914 67.576424 71.81897 74.425156 77.031334 82.668068 87.516075"
         y="0"
         sodipodi:role="line"
         id="tspan126">TAB(word)/(line)</tspan></text>
<g
       id="g128"
       transform="translate(355.5,611.561)"><path
         d="M 0,0 0,13.549"
         style="fill:none;stroke:#000000;stroke-width:0.398;stroke-linecap:butt;stroke-linejoin:miter;stroke-miterlimit:10;stroke-dasharray:none;stroke-opacity:1"
         id="path130"
         inkscape:connector-curvature="0" /></g><text
       transform="matrix(1,0,0,-1,367.131,615.626)"
       style="font-variant:normal;font-weight:normal;font-size:10.90909958px;font-family:CMSS10;-inkscape-font-specification:CMSS10;writing-mode:lr-tb;fill:#000000;fill-opacity:1;fill-rule:nonzero;stroke:none"
       id="text132"><tspan
         x="0 5.4545498 8.4850979 17.572378 23.20911 32.004028 41.091309 46.545856 52.000408 55.030956 64.118233 69.754967"
         y="0"
         sodipodi:role="line"
         id="tspan134">8.2pJ/10.6pJ</tspan></text>
<g
       id="g136"
       transform="translate(453.672,611.561)"><path
         d="M 0,0 0,13.549"
         style="fill:none;stroke:#000000;stroke-width:0.398;stroke-linecap:butt;stroke-linejoin:miter;stroke-miterlimit:10;stroke-dasharray:none;stroke-opacity:1"
         id="path138"
         inkscape:connector-curvature="0" /></g><g
       id="g140"
       transform="translate(154.492,611.362)"><path
         d="M 0,0 299.379,0"
         style="fill:none;stroke:#000000;stroke-width:0.398;stroke-linecap:butt;stroke-linejoin:miter;stroke-miterlimit:10;stroke-dasharray:none;stroke-opacity:1"
         id="path142"
         inkscape:connector-curvature="0" /></g><g
       id="g144"
       transform="translate(154.692,597.614)"><path
         d="M 0,0 0,13.549"
         style="fill:none;stroke:#000000;stroke-width:0.398;stroke-linecap:butt;stroke-linejoin:miter;stroke-miterlimit:10;stroke-dasharray:none;stroke-opacity:1"
         id="path146"
         inkscape:connector-curvature="0" /></g><text
       transform="matrix(1,0,0,-1,160.868,601.679)"
       style="font-variant:normal;font-weight:normal;font-size:10.90909958px;font-family:CMSS10;-inkscape-font-specification:CMSS10;writing-mode:lr-tb;fill:#000000;fill-opacity:1;fill-rule:nonzero;stroke:none"
       id="text148"><tspan
         x="0 9.5454626 14.393467 18.332743 27.208385 31.450935 37.970215 45.243309 52.516407 60.391685 69.489876 73.732422 76.338608 78.944794 84.581528 93.062256 98.69899 104.33572 110.69901 115.547 119.27464"
         y="0"
         sodipodi:role="line"
         id="tspan150">Meta(TAB)/(linebufer)</tspan></text>
<g
       id="g152"
       transform="translate(355.5,597.614)"><path
         d="M 0,0 0,13.549"
         style="fill:none;stroke:#000000;stroke-width:0.398;stroke-linecap:butt;stroke-linejoin:miter;stroke-miterlimit:10;stroke-dasharray:none;stroke-opacity:1"
         id="path154"
         inkscape:connector-curvature="0" /></g><text
       transform="matrix(1,0,0,-1,369.859,601.679)"
       style="font-variant:normal;font-weight:normal;font-size:10.90909958px;font-family:CMSS10;-inkscape-font-specification:CMSS10;writing-mode:lr-tb;fill:#000000;fill-opacity:1;fill-rule:nonzero;stroke:none"
       id="text156"><tspan
         x="0 5.4545498 8.4850979 17.572378 23.20911 32.004028 41.091309 46.545856 49.576405 58.663685 64.300415"
         y="0"
         sodipodi:role="line"
         id="tspan158">1.4pJ/4.5pJ</tspan></text>
<g
       id="g160"
       transform="translate(453.672,597.614)"><path
         d="M 0,0 0,13.549"
         style="fill:none;stroke:#000000;stroke-width:0.398;stroke-linecap:butt;stroke-linejoin:miter;stroke-miterlimit:10;stroke-dasharray:none;stroke-opacity:1"
         id="path162"
         inkscape:connector-curvature="0" /></g><g
       id="g164"
       transform="translate(154.492,597.415)"><path
         d="M 0,0 299.379,0"
         style="fill:none;stroke:#000000;stroke-width:0.398;stroke-linecap:butt;stroke-linejoin:miter;stroke-miterlimit:10;stroke-dasharray:none;stroke-opacity:1"
         id="path166"
         inkscape:connector-curvature="0" /></g><g
       id="g168"
       transform="translate(154.692,583.666)"><path
         d="M 0,0 0,13.549"
         style="fill:none;stroke:#000000;stroke-width:0.398;stroke-linecap:butt;stroke-linejoin:miter;stroke-miterlimit:10;stroke-dasharray:none;stroke-opacity:1"
         id="path170"
         inkscape:connector-curvature="0" /></g><text
       transform="matrix(1,0,0,-1,160.868,587.731)"
       style="font-variant:normal;font-weight:normal;font-size:10.90909958px;font-family:CMSS10;-inkscape-font-specification:CMSS10;writing-mode:lr-tb;fill:#000000;fill-opacity:1;fill-rule:nonzero;stroke:none"
       id="text172"><tspan
         x="0 6.5149145 11.5451 15.484377 19.212015 28.08766 34.148754 38.088032 41.81567 47.452404 52.300407 56.239685 61.876415 65.604057 70.452057 78.277153 82.519707 86.247345 91.095352 100.18263 105.12009 108.84772 112.57536 117.51283 122.54301 130.4292 139.51648 143.75903 148.78922 154.03214 156.63831 159.24449 168.51396 175.96814 178.57433 184.21106"
         y="0"
         sodipodi:role="line"
         id="tspan174">ExtraStructures(regarray)/(validwin)</tspan></text>
<g
       id="g176"
       transform="translate(355.5,583.666)"><path
         d="M 0,0 0,13.549"
         style="fill:none;stroke:#000000;stroke-width:0.398;stroke-linecap:butt;stroke-linejoin:miter;stroke-miterlimit:10;stroke-dasharray:none;stroke-opacity:1"
         id="path178"
         inkscape:connector-curvature="0" /></g><text
       transform="matrix(1,0,0,-1,369.859,587.731)"
       style="font-variant:normal;font-weight:normal;font-size:10.90909958px;font-family:CMSS10;-inkscape-font-specification:CMSS10;writing-mode:lr-tb;fill:#000000;fill-opacity:1;fill-rule:nonzero;stroke:none"
       id="text180"><tspan
         x="0 5.4545498 8.4850979 17.572378 23.20911 32.004028 41.091309 46.545856 49.576405 58.663685 64.300415"
         y="0"
         sodipodi:role="line"
         id="tspan182">0.7pJ/2.3pJ</tspan></text>
<g
       id="g184"
       transform="translate(453.672,583.666)"><path
         d="M 0,0 0,13.549"
         style="fill:none;stroke:#000000;stroke-width:0.398;stroke-linecap:butt;stroke-linejoin:miter;stroke-miterlimit:10;stroke-dasharray:none;stroke-opacity:1"
         id="path186"
         inkscape:connector-curvature="0" /></g><g
       id="g188"
       transform="translate(154.492,583.467)"><path
         d="M 0,0 299.379,0"
         style="fill:none;stroke:#000000;stroke-width:0.398;stroke-linecap:butt;stroke-linejoin:miter;stroke-miterlimit:10;stroke-dasharray:none;stroke-opacity:1"
         id="path190"
         inkscape:connector-curvature="0" /></g><g
       id="g196"
       transform="translate(179.89,534.804)"><path
         d="M 0,0 248.583,0"
         style="fill:none;stroke:#000000;stroke-width:0.398;stroke-linecap:butt;stroke-linejoin:miter;stroke-miterlimit:10;stroke-dasharray:none;stroke-opacity:1"
         id="path198"
         inkscape:connector-curvature="0" /></g><g
       id="g200"
       transform="translate(180.09,521.056)"><path
         d="M 0,0 0,13.549"
         style="fill:none;stroke:#000000;stroke-width:0.398;stroke-linecap:butt;stroke-linejoin:miter;stroke-miterlimit:10;stroke-dasharray:none;stroke-opacity:1"
         id="path202"
         inkscape:connector-curvature="0" /></g><text
       transform="matrix(1,0,0,-1,186.266,525.12)"
       style="font-variant:normal;font-weight:normal;font-size:10.90909958px;font-family:CMBX10;-inkscape-font-specification:CMBX10;writing-mode:lr-tb;fill:#000000;fill-opacity:1;fill-rule:nonzero;stroke:none"
       id="text204"><tspan
         x="0 9.0610981 15.159286 20.037834 25.788021 32.060753 38.333485 43.500038"
         y="0"
         sodipodi:role="line"
         id="tspan206">Category</tspan></text>
<g
       id="g208"
       transform="translate(257.163,521.056)"><path
         d="M 0,0 0,13.549"
         style="fill:none;stroke:#000000;stroke-width:0.398;stroke-linecap:butt;stroke-linejoin:miter;stroke-miterlimit:10;stroke-dasharray:none;stroke-opacity:1"
         id="path210"
         inkscape:connector-curvature="0" /></g><text
       transform="matrix(1,0,0,-1,263.339,525.12)"
       style="font-variant:normal;font-weight:normal;font-size:10.90909958px;font-family:CMBX10;-inkscape-font-specification:CMBX10;writing-mode:lr-tb;fill:#000000;fill-opacity:1;fill-rule:nonzero;stroke:none"
       id="text212"><tspan
         x="0 9.4843712 16.454195 23.424019 26.908386 30.392752 35.968395 42.066582 46.945129 50.429497 56.702229 63.672054"
         y="0"
         sodipodi:role="line"
         id="tspan214">Applications</tspan></text>
<g
       id="g216"
       transform="translate(428.274,521.056)"><path
         d="M 0,0 0,13.549"
         style="fill:none;stroke:#000000;stroke-width:0.398;stroke-linecap:butt;stroke-linejoin:miter;stroke-miterlimit:10;stroke-dasharray:none;stroke-opacity:1"
         id="path218"
         inkscape:connector-curvature="0" /></g><g
       id="g220"
       transform="translate(179.89,520.856)"><path
         d="M 0,0 248.583,0"
         style="fill:none;stroke:#000000;stroke-width:0.398;stroke-linecap:butt;stroke-linejoin:miter;stroke-miterlimit:10;stroke-dasharray:none;stroke-opacity:1"
         id="path222"
         inkscape:connector-curvature="0" /></g><g
       id="g224"
       transform="translate(179.89,518.465)"><path
         d="M 0,0 248.583,0"
         style="fill:none;stroke:#000000;stroke-width:0.398;stroke-linecap:butt;stroke-linejoin:miter;stroke-miterlimit:10;stroke-dasharray:none;stroke-opacity:1"
         id="path226"
         inkscape:connector-curvature="0" /></g><g
       id="g228"
       transform="translate(180.09,504.717)"><path
         d="M 0,0 0,13.549"
         style="fill:none;stroke:#000000;stroke-width:0.398;stroke-linecap:butt;stroke-linejoin:miter;stroke-miterlimit:10;stroke-dasharray:none;stroke-opacity:1"
         id="path230"
         inkscape:connector-curvature="0" /></g><text
       transform="matrix(1,0,0,-1,186.266,508.782)"
       style="font-variant:normal;font-weight:normal;font-size:10.90909958px;font-family:CMBX10;-inkscape-font-specification:CMBX10;writing-mode:lr-tb;fill:#000000;fill-opacity:1;fill-rule:nonzero;stroke:none"
       id="text232"><tspan
         x="0 9.4843712 16.454195 21.332745 27.605478 38.059669 44.332401 49.210949 52.695316 58.966957"
         y="0"
         sodipodi:role="line"
         id="tspan234">Automotive</tspan></text>
<g
       id="g236"
       transform="translate(257.163,504.717)"><path
         d="M 0,0 0,13.549"
         style="fill:none;stroke:#000000;stroke-width:0.398;stroke-linecap:butt;stroke-linejoin:miter;stroke-miterlimit:10;stroke-dasharray:none;stroke-opacity:1"
         id="path238"
         inkscape:connector-curvature="0" /></g><text
       transform="matrix(1,0,0,-1,263.339,508.782)"
       style="font-variant:normal;font-weight:normal;font-size:10.90909958px;font-family:CMSS10;-inkscape-font-specification:CMSS10;writing-mode:lr-tb;fill:#000000;fill-opacity:1;fill-rule:nonzero;stroke:none"
       id="text240"><tspan
         x="0 7.273097 12.51601 16.697468 19.303652 24.151657 32.817844 38.06076 42.000034 47.636768 54.300045 61.573143 64.179329 68.118599 72.966606 78.421158 84.057892 89.694618 93.633896 100.30808 108.33827 112.51973 117.66882 121.39646 125.33574 131.99902 138.06012 143.69685 147.87831 153.12122"
         y="0"
         sodipodi:role="line"
         id="tspan242">Basicmath,Bitcount,Qsort,Susan</tspan></text>
<g
       id="g244"
       transform="translate(428.274,504.717)"><path
         d="M 0,0 0,13.549"
         style="fill:none;stroke:#000000;stroke-width:0.398;stroke-linecap:butt;stroke-linejoin:miter;stroke-miterlimit:10;stroke-dasharray:none;stroke-opacity:1"
         id="path246"
         inkscape:connector-curvature="0" /></g><g
       id="g248"
       transform="translate(179.89,504.518)"><path
         d="M 0,0 248.583,0"
         style="fill:none;stroke:#000000;stroke-width:0.398;stroke-linecap:butt;stroke-linejoin:miter;stroke-miterlimit:10;stroke-dasharray:none;stroke-opacity:1"
         id="path250"
         inkscape:connector-curvature="0" /></g><g
       id="g252"
       transform="translate(180.09,490.769)"><path
         d="M 0,0 0,13.549"
         style="fill:none;stroke:#000000;stroke-width:0.398;stroke-linecap:butt;stroke-linejoin:miter;stroke-miterlimit:10;stroke-dasharray:none;stroke-opacity:1"
         id="path254"
         inkscape:connector-curvature="0" /></g><text
       transform="matrix(1,0,0,-1,186.266,494.834)"
       style="font-variant:normal;font-weight:normal;font-size:10.90909958px;font-family:CMBX10;-inkscape-font-specification:CMBX10;writing-mode:lr-tb;fill:#000000;fill-opacity:1;fill-rule:nonzero;stroke:none"
       id="text256"><tspan
         x="0 9.0610981 15.333831 22.303656 27.252022 34.221848 44.676037 50.426224"
         y="0"
         sodipodi:role="line"
         id="tspan258">Consumer</tspan></text>
<g
       id="g260"
       transform="translate(257.163,490.769)"><path
         d="M 0,0 0,13.549"
         style="fill:none;stroke:#000000;stroke-width:0.398;stroke-linecap:butt;stroke-linejoin:miter;stroke-miterlimit:10;stroke-dasharray:none;stroke-opacity:1"
         id="path262"
         inkscape:connector-curvature="0" /></g><text
       transform="matrix(1,0,0,-1,263.339,494.834)"
       style="font-variant:normal;font-weight:normal;font-size:10.90909958px;font-family:CMSS10;-inkscape-font-specification:CMSS10;writing-mode:lr-tb;fill:#000000;fill-opacity:1;fill-rule:nonzero;stroke:none"
       id="text264"><tspan
         x="0 5.1512771 12.121101 18.636015 25.909113 32.572392 38.48185 43.724762 52.390953 57.238956 63.913143 71.337875 74.368423 80.58007"
         y="0"
         sodipodi:role="line"
         id="tspan266">JPEG,Lame,TIFF</tspan></text>
<g
       id="g268"
       transform="translate(428.274,490.769)"><path
         d="M 0,0 0,13.549"
         style="fill:none;stroke:#000000;stroke-width:0.398;stroke-linecap:butt;stroke-linejoin:miter;stroke-miterlimit:10;stroke-dasharray:none;stroke-opacity:1"
         id="path270"
         inkscape:connector-curvature="0" /></g><g
       id="g272"
       transform="translate(179.89,490.57)"><path
         d="M 0,0 248.583,0"
         style="fill:none;stroke:#000000;stroke-width:0.398;stroke-linecap:butt;stroke-linejoin:miter;stroke-miterlimit:10;stroke-dasharray:none;stroke-opacity:1"
         id="path274"
         inkscape:connector-curvature="0" /></g><g
       id="g276"
       transform="translate(180.09,476.822)"><path
         d="M 0,0 0,13.549"
         style="fill:none;stroke:#000000;stroke-width:0.398;stroke-linecap:butt;stroke-linejoin:miter;stroke-miterlimit:10;stroke-dasharray:none;stroke-opacity:1"
         id="path278"
         inkscape:connector-curvature="0" /></g><text
       transform="matrix(1,0,0,-1,186.266,480.886)"
       style="font-variant:normal;font-weight:normal;font-size:10.90909958px;font-family:CMBX10;-inkscape-font-specification:CMBX10;writing-mode:lr-tb;fill:#000000;fill-opacity:1;fill-rule:nonzero;stroke:none"
       id="text280"><tspan
         x="0 9.8181896 15.568377 20.097836 28.809843 35.082573 40.249123"
         y="0"
         sodipodi:role="line"
         id="tspan282">Network</tspan></text>
<g
       id="g284"
       transform="translate(257.163,476.822)"><path
         d="M 0,0 0,13.549"
         style="fill:none;stroke:#000000;stroke-width:0.398;stroke-linecap:butt;stroke-linejoin:miter;stroke-miterlimit:10;stroke-dasharray:none;stroke-opacity:1"
         id="path286"
         inkscape:connector-curvature="0" /></g><text
       transform="matrix(1,0,0,-1,263.339,480.886)"
       style="font-variant:normal;font-weight:normal;font-size:10.90909958px;font-family:CMSS10;-inkscape-font-specification:CMSS10;writing-mode:lr-tb;fill:#000000;fill-opacity:1;fill-rule:nonzero;stroke:none"
       id="text288"><tspan
         x="0 7.878552 10.484736 13.394193 18.727652 22.909109 26.848387 30.576025 35.818939 42.482216 49.157497 54.3895 58.328777 62.056416 64.662598 69.510605 72.116791"
         y="0"
         sodipodi:role="line"
         id="tspan290">Dijkstra,Patricia</tspan></text>
<g
       id="g292"
       transform="translate(428.274,476.822)"><path
         d="M 0,0 0,13.549"
         style="fill:none;stroke:#000000;stroke-width:0.398;stroke-linecap:butt;stroke-linejoin:miter;stroke-miterlimit:10;stroke-dasharray:none;stroke-opacity:1"
         id="path294"
         inkscape:connector-curvature="0" /></g><g
       id="g296"
       transform="translate(179.89,476.622)"><path
         d="M 0,0 248.583,0"
         style="fill:none;stroke:#000000;stroke-width:0.398;stroke-linecap:butt;stroke-linejoin:miter;stroke-miterlimit:10;stroke-dasharray:none;stroke-opacity:1"
         id="path298"
         inkscape:connector-curvature="0" /></g><g
       id="g300"
       transform="translate(180.09,462.874)"><path
         d="M 0,0 0,13.549"
         style="fill:none;stroke:#000000;stroke-width:0.398;stroke-linecap:butt;stroke-linejoin:miter;stroke-miterlimit:10;stroke-dasharray:none;stroke-opacity:1"
         id="path302"
         inkscape:connector-curvature="0" /></g><text
       transform="matrix(1,0,0,-1,186.266,466.939)"
       style="font-variant:normal;font-weight:normal;font-size:10.90909958px;font-family:CMBX10;-inkscape-font-specification:CMBX10;writing-mode:lr-tb;fill:#000000;fill-opacity:1;fill-rule:nonzero;stroke:none"
       id="text304"><tspan
         x="0 9.4243717 19.878563 25.454203"
         y="0"
         sodipodi:role="line"
         id="tspan306">Ofce</tspan></text>
<g
       id="g308"
       transform="translate(257.163,462.874)"><path
         d="M 0,0 0,13.549"
         style="fill:none;stroke:#000000;stroke-width:0.398;stroke-linecap:butt;stroke-linejoin:miter;stroke-miterlimit:10;stroke-dasharray:none;stroke-opacity:1"
         id="path310"
         inkscape:connector-curvature="0" /></g><text
       transform="matrix(1,0,0,-1,263.339,466.939)"
       style="font-variant:normal;font-weight:normal;font-size:10.90909958px;font-family:CMSS10;-inkscape-font-specification:CMSS10;writing-mode:lr-tb;fill:#000000;fill-opacity:1;fill-rule:nonzero;stroke:none"
       id="text312"><tspan
         x="0 3.0305481 7.2120061 13.154193 18.002197 20.608381 23.214565 29.877844 36.922939 41.104397 46.134583 51.771317 55.71059 61.347324 68.010605 74.071701 78.010971 81.738617 84.344795 89.981529 95.436081 99.617538 104.46554 109.41391 113.14155 117.98956"
         y="0"
         sodipodi:role="line"
         id="tspan314">Ispell,Rsynth,Stringsearch</tspan></text>
<g
       id="g316"
       transform="translate(428.274,462.874)"><path
         d="M 0,0 0,13.549"
         style="fill:none;stroke:#000000;stroke-width:0.398;stroke-linecap:butt;stroke-linejoin:miter;stroke-miterlimit:10;stroke-dasharray:none;stroke-opacity:1"
         id="path318"
         inkscape:connector-curvature="0" /></g><g
       id="g320"
       transform="translate(179.89,462.675)"><path
         d="M 0,0 248.583,0"
         style="fill:none;stroke:#000000;stroke-width:0.398;stroke-linecap:butt;stroke-linejoin:miter;stroke-miterlimit:10;stroke-dasharray:none;stroke-opacity:1"
         id="path322"
         inkscape:connector-curvature="0" /></g><g
       id="g324"
       transform="translate(180.09,448.926)"><path
         d="M 0,0 0,13.549"
         style="fill:none;stroke:#000000;stroke-width:0.398;stroke-linecap:butt;stroke-linejoin:miter;stroke-miterlimit:10;stroke-dasharray:none;stroke-opacity:1"
         id="path326"
         inkscape:connector-curvature="0" /></g><text
       transform="matrix(1,0,0,-1,186.266,452.991)"
       style="font-variant:normal;font-weight:normal;font-size:10.90909958px;font-family:CMBX10;-inkscape-font-specification:CMBX10;writing-mode:lr-tb;fill:#000000;fill-opacity:1;fill-rule:nonzero;stroke:none"
       id="text328"><tspan
         x="0 6.9698238 12.720011 18.295652 25.265476 30.432026 33.916393 38.44585"
         y="0"
         sodipodi:role="line"
         id="tspan330">Security</tspan></text>
<g
       id="g332"
       transform="translate(257.163,448.926)"><path
         d="M 0,0 0,13.549"
         style="fill:none;stroke:#000000;stroke-width:0.398;stroke-linecap:butt;stroke-linejoin:miter;stroke-miterlimit:10;stroke-dasharray:none;stroke-opacity:1"
         id="path334"
         inkscape:connector-curvature="0" /></g><text
       transform="matrix(1,0,0,-1,263.339,452.991)"
       style="font-variant:normal;font-weight:normal;font-size:10.90909958px;font-family:CMSS10;-inkscape-font-specification:CMSS10;writing-mode:lr-tb;fill:#000000;fill-opacity:1;fill-rule:nonzero;stroke:none"
       id="text336"><tspan
         x="0 7.273097 9.879281 15.028377 22.482565 28.330933 32.51239 38.149124 44.823311 51.868408 54.47459 57.384048 63.020779 68.657509 73.889519 78.748428 81.343704 88.017891 94.078987 101.8059 109.079 115.74228 122.7121 129.9852"
         y="0"
         sodipodi:role="line"
         id="tspan338">Blowfsh,Rijndael,SHA,PGP</tspan></text>
<g
       id="g340"
       transform="translate(428.274,448.926)"><path
         d="M 0,0 0,13.549"
         style="fill:none;stroke:#000000;stroke-width:0.398;stroke-linecap:butt;stroke-linejoin:miter;stroke-miterlimit:10;stroke-dasharray:none;stroke-opacity:1"
         id="path342"
         inkscape:connector-curvature="0" /></g><g
       id="g344"
       transform="translate(179.89,448.727)"><path
         d="M 0,0 248.583,0"
         style="fill:none;stroke:#000000;stroke-width:0.398;stroke-linecap:butt;stroke-linejoin:miter;stroke-miterlimit:10;stroke-dasharray:none;stroke-opacity:1"
         id="path346"
         inkscape:connector-curvature="0" /></g><g
       id="g348"
       transform="translate(180.09,434.979)"><path
         d="M 0,0 0,13.549"
         style="fill:none;stroke:#000000;stroke-width:0.398;stroke-linecap:butt;stroke-linejoin:miter;stroke-miterlimit:10;stroke-dasharray:none;stroke-opacity:1"
         id="path350"
         inkscape:connector-curvature="0" /></g><text
       transform="matrix(1,0,0,-1,186.266,439.043)"
       style="font-variant:normal;font-weight:normal;font-size:10.90909958px;font-family:CMBX10;-inkscape-font-specification:CMBX10;writing-mode:lr-tb;fill:#000000;fill-opacity:1;fill-rule:nonzero;stroke:none"
       id="text352"><tspan
         x="0 7.6800065 13.430193 16.91456 22.664745 28.240387 34.513119 44.967312"
         y="0"
         sodipodi:role="line"
         id="tspan354">Telecomm</tspan></text>
<g
       id="g356"
       transform="translate(257.163,434.979)"><path
         d="M 0,0 0,13.549"
         style="fill:none;stroke:#000000;stroke-width:0.398;stroke-linecap:butt;stroke-linejoin:miter;stroke-miterlimit:10;stroke-dasharray:none;stroke-opacity:1"
         id="path358"
         inkscape:connector-curvature="0" /></g><text
       transform="matrix(1,0,0,-1,263.339,439.043)"
       style="font-variant:normal;font-weight:normal;font-size:10.90909958px;font-family:CMSS10;-inkscape-font-specification:CMSS10;writing-mode:lr-tb;fill:#000000;fill-opacity:1;fill-rule:nonzero;stroke:none"
       id="text360"><tspan
         x="0 7.273097 15.151649 22.121473 29.091297 38.636761 45.300037 52.269863 59.314957 66.284782 71.739334 77.193886 83.868073 90.079712 96.291351 103.71609 110.37936 117.65246 123.71355"
         y="0"
         sodipodi:role="line"
         id="tspan362">ADPCM,CRC32,FFT,GSM</tspan></text>
<g
       id="g364"
       transform="translate(428.274,434.979)"><path
         d="M 0,0 0,13.549"
         style="fill:none;stroke:#000000;stroke-width:0.398;stroke-linecap:butt;stroke-linejoin:miter;stroke-miterlimit:10;stroke-dasharray:none;stroke-opacity:1"
         id="path366"
         inkscape:connector-curvature="0" /></g><g
       id="g368"
       transform="translate(179.89,434.779)"><path
         d="M 0,0 248.583,0"
         style="fill:none;stroke:#000000;stroke-width:0.398;stroke-linecap:butt;stroke-linejoin:miter;stroke-miterlimit:10;stroke-dasharray:none;stroke-opacity:1"
         id="path370"
         inkscape:connector-curvature="0" /></g></g></svg>